<svg xmlns="http://www.w3.org/2000/svg" width="85" height="59" viewBox="0 0 85 59"><defs><style>.a{font-size:26px;font-family:AbrilFatface-Regular, Abril Fatface;}.b,.c{fill:#fff;stroke:#000;stroke-linecap:round;}.c{stroke-width:2px;}</style></defs><text class="a" transform="translate(0 28)"><tspan x="0" y="0">Good</tspan><tspan x="0" y="23">Burger</tspan></text><path d="M237.249,49.2c.56.047,15.722,0,15.722,0s-.563-5.195-8-5.244S236.689,49.153,237.249,49.2Z" transform="translate(-171 -32)"/><path d="M.14,5.244c.56.047,15.722,0,15.722,0S15.3.049,7.862,0-.42,5.2.14,5.244Z" transform="matrix(-1, 0.017, -0.017, -1, 81.971, 29.223)"/><path class="b" d="M238.109,49.3l2.256-1.813,1.285,1.338,1.327-1.338,1.248,1.338,1.6-1.338.734,1.338,2.528-1.338v1.338l1.669-1.338,1.484,1.338,1.249-1.338" transform="translate(-172 -29)"/><path class="c" d="M238.02,50.127h15.244" transform="translate(-171.646 -28)"/></svg>